<svg width="51" height="19" viewBox="0 0 51 19" fill="none" xmlns="http://www.w3.org/2000/svg">
<path d="M14.1007 7.95C14.134 8.5 14.1257 9.06667 14.0757 9.65C14.0424 10.2333 13.984 10.8 13.9007 11.35C13.734 12.3 13.4257 13.225 12.9757 14.125C12.5257 15.025 11.8674 15.7917 11.0007 16.425C10.1007 17.0917 9.07568 17.55 7.92568 17.8C6.77568 18.0333 5.63402 18.175 4.50068 18.225C4.11735 18.2583 3.72568 18.2667 3.32568 18.25C2.94235 18.25 2.56735 18.2083 2.20068 18.125C1.90068 18.075 1.67568 17.9833 1.52568 17.85C1.44235 17.8 1.37568 17.7333 1.32568 17.65C1.27568 17.5667 1.23402 17.4833 1.20068 17.4C1.15068 17.3167 1.10902 17.2333 1.07568 17.15C1.05902 17.05 1.03402 16.95 1.00068 16.85C0.984017 16.7667 0.96735 16.6917 0.950684 16.625C0.950684 16.5417 0.950684 16.4667 0.950684 16.4V2.125C0.950684 2.00833 0.950684 1.9 0.950684 1.8C0.950684 1.7 0.96735 1.6 1.00068 1.5C1.03402 1.26667 1.08402 1.075 1.15068 0.924999C1.21735 0.724999 1.30902 0.583332 1.42568 0.499999C1.52568 0.416666 1.62568 0.358332 1.72568 0.325C1.82568 0.274999 1.91735 0.233333 2.00068 0.2C2.10068 0.166666 2.20068 0.166666 2.30068 0.2C2.41735 0.216666 2.54235 0.191666 2.67568 0.124999L6.85068 0.224999C7.95068 0.258332 8.93402 0.516666 9.80068 1C10.6674 1.46667 11.409 2.06667 12.0257 2.8C12.6424 3.53333 13.1257 4.35833 13.4757 5.275C13.8257 6.175 14.034 7.06667 14.1007 7.95ZM9.45068 12.7C9.76735 12.2 10.0007 11.625 10.1507 10.975C10.3007 10.325 10.3674 9.66667 10.3507 9C10.334 8.31667 10.2424 7.65833 10.0757 7.025C9.90902 6.375 9.67568 5.8 9.37568 5.3C9.14235 4.93333 8.84235 4.63333 8.47568 4.4C8.10902 4.16667 7.70068 3.99167 7.25068 3.875C6.80068 3.74167 6.31735 3.65 5.80068 3.6C5.30068 3.55 4.80902 3.525 4.32568 3.525C4.34235 4.00833 4.35068 4.475 4.35068 4.925C4.35068 5.375 4.35068 5.85 4.35068 6.35C4.33402 6.95 4.32568 7.53333 4.32568 8.1C4.32568 8.66667 4.32568 9.21667 4.32568 9.75V14.85C4.84235 14.8333 5.33402 14.8083 5.80068 14.775C6.28402 14.725 6.74235 14.625 7.17568 14.475C7.62568 14.325 8.03402 14.1167 8.40068 13.85C8.78402 13.5667 9.13402 13.1833 9.45068 12.7ZM19.0856 7.475C19.5856 7.225 20.1106 7.05 20.6606 6.95C21.2106 6.83333 21.7523 6.80833 22.2856 6.875C22.8356 6.925 23.3606 7.06667 23.8606 7.3C24.3606 7.51667 24.8273 7.83333 25.2606 8.25C25.694 8.68333 26.0273 9.15833 26.2606 9.675C26.494 10.1917 26.6606 10.7667 26.7606 11.4C26.8273 11.8333 26.9356 12.2333 27.0856 12.6C27.2356 12.9667 27.394 13.3333 27.5606 13.7C27.744 14.0667 27.9106 14.4333 28.0606 14.8C28.2273 15.1667 28.3606 15.55 28.4606 15.95C28.544 16.3333 28.5106 16.7083 28.3606 17.075C28.2273 17.425 27.944 17.6417 27.5106 17.725C27.2606 17.775 27.019 17.7583 26.7856 17.675C26.569 17.575 26.369 17.4417 26.1856 17.275C26.0023 17.0917 25.8356 16.9 25.6856 16.7C25.5523 16.4833 25.4273 16.2833 25.3106 16.1C24.9273 16.6 24.5106 16.9917 24.0606 17.275C23.6106 17.5417 23.069 17.7167 22.4356 17.8C21.9023 17.8667 21.394 17.8833 20.9106 17.85C20.4273 17.8167 19.9106 17.725 19.3606 17.575C18.644 17.3917 18.0523 17.075 17.5856 16.625C17.1356 16.1583 16.7856 15.625 16.5356 15.025C16.3023 14.4083 16.1773 13.75 16.1606 13.05C16.144 12.35 16.2273 11.6583 16.4106 10.975C16.644 10.075 16.994 9.34167 17.4606 8.775C17.9273 8.20833 18.469 7.775 19.0856 7.475ZM19.7106 10.4C19.4773 10.6333 19.294 10.9083 19.1606 11.225C19.0273 11.5417 18.944 11.875 18.9106 12.225C18.894 12.575 18.9273 12.925 19.0106 13.275C19.094 13.625 19.2273 13.9333 19.4106 14.2C19.5773 14.4333 19.8606 14.6333 20.2606 14.8C20.6606 14.95 21.0773 15.0417 21.5106 15.075C22.0106 15.1083 22.444 14.975 22.8106 14.675C23.194 14.375 23.4773 14 23.6606 13.55C23.8606 13.0833 23.9523 12.5917 23.9356 12.075C23.919 11.5417 23.7773 11.0583 23.5106 10.625C23.3106 10.3083 23.044 10.075 22.7106 9.925C22.394 9.775 22.0523 9.7 21.6856 9.7C21.319 9.68333 20.9523 9.74167 20.5856 9.875C20.2356 9.99167 19.944 10.1667 19.7106 10.4ZM38.2614 6.975C38.3948 7.29167 38.4031 7.64167 38.2864 8.025C38.1864 8.40833 37.9948 8.65833 37.7114 8.775C37.5614 8.84167 37.3614 8.9 37.1114 8.95C36.8614 8.98333 36.5864 9.01667 36.2864 9.05C36.0031 9.08333 35.7198 9.10833 35.4364 9.125C35.1531 9.14167 34.9114 9.15 34.7114 9.15C34.7281 9.65 34.7448 10.1667 34.7614 10.7C34.7781 11.2167 34.7948 11.725 34.8114 12.225C34.8281 12.725 34.8364 13.2083 34.8364 13.675C34.8364 14.125 34.8281 14.5333 34.8114 14.9C34.8114 15.15 34.8114 15.4417 34.8114 15.775C34.8114 16.0917 34.7864 16.4 34.7364 16.7C34.7031 17 34.6448 17.2667 34.5614 17.5C34.4781 17.7167 34.3531 17.8583 34.1864 17.925C33.6698 18.1417 33.1948 18.2 32.7614 18.1C32.3448 18.0167 32.0448 17.8417 31.8614 17.575C31.7281 17.3583 31.6281 17.1083 31.5614 16.825C31.4948 16.525 31.4448 16.225 31.4114 15.925C31.3948 15.6083 31.3864 15.3083 31.3864 15.025C31.4031 14.725 31.4114 14.4667 31.4114 14.25C31.4281 13.55 31.4364 12.7583 31.4364 11.875C31.4531 10.975 31.4614 10.075 31.4614 9.175H31.0864C30.8864 9.175 30.6281 9.175 30.3114 9.175C30.0114 9.15833 29.7031 9.13333 29.3864 9.1C29.0864 9.05 28.8031 8.99167 28.5364 8.925C28.2698 8.84167 28.0781 8.725 27.9614 8.575C27.7781 8.35833 27.6614 8.125 27.6114 7.875C27.5781 7.625 27.5948 7.39167 27.6614 7.175C27.7448 6.94167 27.8698 6.74167 28.0364 6.575C28.2031 6.39167 28.3948 6.275 28.6114 6.225C28.9114 6.14167 29.3364 6.1 29.8864 6.1C30.4364 6.08333 30.9531 6.08333 31.4364 6.1C31.4198 5.93333 31.4114 5.775 31.4114 5.625C31.4114 5.45833 31.4031 5.3 31.3864 5.15C31.3698 4.95 31.3614 4.7 31.3614 4.4C31.3614 4.08333 31.3781 3.775 31.4114 3.475C31.4614 3.15833 31.5364 2.86667 31.6364 2.6C31.7364 2.31667 31.8781 2.1 32.0614 1.95C32.3114 1.75 32.5614 1.64167 32.8114 1.625C33.0781 1.59167 33.3198 1.625 33.5364 1.725C33.7698 1.825 33.9614 1.975 34.1114 2.175C34.2781 2.35833 34.3948 2.56667 34.4614 2.8C34.5114 3 34.5531 3.24167 34.5864 3.525C34.6198 3.79167 34.6364 4.075 34.6364 4.375C34.6531 4.675 34.6614 4.975 34.6614 5.275C34.6614 5.575 34.6614 5.85 34.6614 6.1H34.9114C35.1614 6.1 35.4531 6.09167 35.7864 6.075C36.1198 6.05833 36.4448 6.06667 36.7614 6.1C37.0948 6.13333 37.3948 6.21667 37.6614 6.35C37.9281 6.46667 38.1281 6.675 38.2614 6.975ZM48.0284 14.575C48.2284 14.525 48.4284 14.4917 48.6284 14.475C48.8451 14.4583 49.0368 14.4833 49.2034 14.55C49.3868 14.6167 49.5368 14.7333 49.6534 14.9C49.7701 15.05 49.8284 15.2667 49.8284 15.55C49.8284 15.75 49.7784 15.9417 49.6784 16.125C49.5784 16.3083 49.4534 16.475 49.3034 16.625C49.1534 16.775 48.9868 16.9083 48.8034 17.025C48.6201 17.125 48.4451 17.2083 48.2784 17.275C47.7951 17.4917 47.2368 17.6583 46.6034 17.775C45.9868 17.8917 45.3451 17.9333 44.6784 17.9C43.7784 17.8667 42.9118 17.6917 42.0784 17.375C41.2618 17.0417 40.6201 16.5 40.1534 15.75C39.7201 15.0167 39.4618 14.2 39.3784 13.3C39.2951 12.4 39.3368 11.55 39.5034 10.75C39.6868 9.78333 39.9951 9 40.4284 8.4C40.8784 7.78333 41.4118 7.29167 42.0284 6.925C42.7784 6.49167 43.6201 6.26667 44.5534 6.25C45.4868 6.23333 46.3784 6.41667 47.2284 6.8C47.7951 7.05 48.3034 7.39167 48.7534 7.825C49.2034 8.24167 49.5451 8.75 49.7784 9.35C49.8451 9.5 49.8951 9.68333 49.9284 9.9C49.9784 10.1167 50.0118 10.35 50.0284 10.6C50.0451 10.8333 50.0451 11.0667 50.0284 11.3C50.0118 11.5333 49.9701 11.7417 49.9034 11.925C49.8034 12.225 49.6784 12.4583 49.5284 12.625C49.3784 12.7917 49.1868 12.9167 48.9534 13C48.7201 13.0833 48.4368 13.1417 48.1034 13.175C47.7868 13.1917 47.4034 13.2083 46.9534 13.225C46.5534 13.2417 46.1784 13.25 45.8284 13.25C45.4784 13.25 45.1201 13.25 44.7534 13.25C44.3868 13.2333 44.0034 13.225 43.6034 13.225C43.2201 13.2083 42.7868 13.1917 42.3034 13.175C42.2534 13.5083 42.2951 13.8 42.4284 14.05C42.5784 14.2833 42.7784 14.4833 43.0284 14.65C43.2784 14.8 43.5618 14.9167 43.8784 15C44.1951 15.0833 44.5034 15.1333 44.8034 15.15C45.3701 15.1833 45.9118 15.1417 46.4284 15.025C46.9451 14.8917 47.4784 14.7417 48.0284 14.575ZM46.9534 9.725C46.6368 9.35833 46.3034 9.09167 45.9534 8.925C45.6868 8.80833 45.4034 8.75833 45.1034 8.775C44.8201 8.775 44.5451 8.81667 44.2784 8.9C43.7951 9.01667 43.3868 9.26667 43.0534 9.65C43.0201 9.68333 42.9618 9.76667 42.8784 9.9C42.7951 10.0167 42.7118 10.1417 42.6284 10.275C42.5618 10.4083 42.5118 10.5333 42.4784 10.65C42.4451 10.7667 42.4618 10.825 42.5284 10.825H47.4284C47.4118 10.5917 47.3701 10.4 47.3034 10.25C47.2368 10.0833 47.1201 9.90833 46.9534 9.725Z" fill="black"/>
</svg>
