<svg width="445" height="100" viewBox="0 0 545 131" fill="none" xmlns="http://www.w3.org/2000/svg">
<path d="M86.4909 57.84C86.5976 59.6 86.5709 61.4133 86.4109 63.28C86.3043 65.1467 86.1176 66.96 85.8509 68.72C85.3176 71.76 84.3309 74.72 82.8909 77.6C81.4509 80.48 79.3443 82.9333 76.5709 84.96C73.6909 87.0933 70.4109 88.56 66.7309 89.36C63.0509 90.1067 59.3976 90.56 55.7709 90.72C54.5443 90.8267 53.2909 90.8533 52.0109 90.8C50.7843 90.8 49.5843 90.6667 48.4109 90.4C47.4509 90.24 46.7309 89.9467 46.2509 89.52C45.9843 89.36 45.7709 89.1467 45.6109 88.88C45.4509 88.6133 45.3176 88.3467 45.2109 88.08C45.0509 87.8133 44.9176 87.5467 44.8109 87.28C44.7576 86.96 44.6776 86.64 44.5709 86.32C44.5176 86.0533 44.4643 85.8133 44.4109 85.6C44.4109 85.3333 44.4109 85.0933 44.4109 84.88V39.2C44.4109 38.8267 44.4109 38.48 44.4109 38.16C44.4109 37.84 44.4643 37.52 44.5709 37.2C44.6776 36.4533 44.8376 35.84 45.0509 35.36C45.2643 34.72 45.5576 34.2667 45.9309 34C46.2509 33.7333 46.5709 33.5467 46.8909 33.44C47.2109 33.28 47.5043 33.1467 47.7709 33.04C48.0909 32.9333 48.4109 32.9333 48.7309 33.04C49.1043 33.0933 49.5043 33.0133 49.9309 32.8L63.2909 33.12C66.8109 33.2267 69.9576 34.0533 72.7309 35.6C75.5043 37.0933 77.8776 39.0133 79.8509 41.36C81.8243 43.7067 83.3709 46.3467 84.4909 49.28C85.6109 52.16 86.2776 55.0133 86.4909 57.84ZM71.6109 73.04C72.6243 71.44 73.3709 69.6 73.8509 67.52C74.3309 65.44 74.5443 63.3333 74.4909 61.2C74.4376 59.0133 74.1443 56.9067 73.6109 54.88C73.0776 52.8 72.3309 50.96 71.3709 49.36C70.6243 48.1867 69.6643 47.2267 68.4909 46.48C67.3176 45.7333 66.0109 45.1733 64.5709 44.8C63.1309 44.3733 61.5843 44.08 59.9309 43.92C58.3309 43.76 56.7576 43.68 55.2109 43.68C55.2643 45.2267 55.2909 46.72 55.2909 48.16C55.2909 49.6 55.2909 51.12 55.2909 52.72C55.2376 54.64 55.2109 56.5067 55.2109 58.32C55.2109 60.1333 55.2109 61.8933 55.2109 63.6V79.92C56.8643 79.8667 58.4376 79.7867 59.9309 79.68C61.4776 79.52 62.9443 79.2 64.3309 78.72C65.7709 78.24 67.0776 77.5733 68.2509 76.72C69.4776 75.8133 70.5976 74.5867 71.6109 73.04ZM102.443 56.32C104.043 55.52 105.723 54.96 107.483 54.64C109.243 54.2667 110.976 54.1867 112.683 54.4C114.443 54.56 116.123 55.0133 117.723 55.76C119.323 56.4533 120.816 57.4667 122.203 58.8C123.589 60.1867 124.656 61.7067 125.403 63.36C126.149 65.0133 126.683 66.8533 127.003 68.88C127.216 70.2667 127.563 71.5467 128.043 72.72C128.523 73.8933 129.029 75.0667 129.563 76.24C130.149 77.4133 130.683 78.5867 131.163 79.76C131.696 80.9333 132.123 82.16 132.443 83.44C132.709 84.6667 132.603 85.8667 132.123 87.04C131.696 88.16 130.789 88.8533 129.403 89.12C128.603 89.28 127.829 89.2267 127.083 88.96C126.389 88.64 125.749 88.2133 125.163 87.68C124.576 87.0933 124.043 86.48 123.563 85.84C123.136 85.1467 122.736 84.5067 122.363 83.92C121.136 85.52 119.803 86.7733 118.363 87.68C116.923 88.5333 115.189 89.0933 113.163 89.36C111.456 89.5733 109.829 89.6267 108.283 89.52C106.736 89.4133 105.083 89.12 103.323 88.64C101.029 88.0533 99.1361 87.04 97.6428 85.6C96.2028 84.1067 95.0828 82.4 94.2828 80.48C93.5361 78.5067 93.1361 76.4 93.0828 74.16C93.0295 71.92 93.2961 69.7067 93.8828 67.52C94.6295 64.64 95.7495 62.2933 97.2428 60.48C98.7361 58.6667 100.469 57.28 102.443 56.32ZM104.443 65.68C103.696 66.4267 103.109 67.3067 102.683 68.32C102.256 69.3333 101.989 70.4 101.883 71.52C101.829 72.64 101.936 73.76 102.203 74.88C102.469 76 102.896 76.9867 103.483 77.84C104.016 78.5867 104.923 79.2267 106.203 79.76C107.483 80.24 108.816 80.5333 110.203 80.64C111.803 80.7467 113.189 80.32 114.363 79.36C115.589 78.4 116.496 77.2 117.083 75.76C117.723 74.2667 118.016 72.6933 117.963 71.04C117.909 69.3333 117.456 67.7867 116.603 66.4C115.963 65.3867 115.109 64.64 114.043 64.16C113.029 63.68 111.936 63.44 110.763 63.44C109.589 63.3867 108.416 63.5733 107.243 64C106.123 64.3733 105.189 64.9333 104.443 65.68ZM149.178 59.68C149.178 61.1733 149.178 62.8533 149.178 64.72C149.232 66.5867 149.258 68.5333 149.258 70.56C149.258 72.5333 149.258 74.5067 149.258 76.48C149.258 78.4 149.232 80.1867 149.178 81.84C149.125 82.64 149.045 83.52 148.938 84.48C148.832 85.3867 148.618 86.24 148.298 87.04C147.978 87.84 147.472 88.5067 146.778 89.04C146.138 89.52 145.258 89.7333 144.138 89.68C142.485 89.5733 141.285 88.8533 140.538 87.52C139.845 86.1867 139.445 84.32 139.338 81.92C139.338 80.6933 139.312 79.28 139.258 77.68C139.258 76.08 139.232 74.4533 139.178 72.8C139.178 71.1467 139.178 69.5467 139.178 68C139.178 66.4 139.178 64.96 139.178 63.68C139.178 62.9333 139.152 62.0267 139.098 60.96C139.098 59.8933 139.125 58.8 139.178 57.68C139.232 56.56 139.365 55.4933 139.578 54.48C139.792 53.4133 140.138 52.5333 140.618 51.84C140.992 51.4133 141.525 51.0933 142.218 50.88C142.912 50.6133 143.632 50.48 144.378 50.48C145.178 50.48 145.925 50.6133 146.618 50.88C147.365 51.1467 147.898 51.52 148.218 52C148.432 52.32 148.592 52.7733 148.698 53.36C148.805 53.9467 148.885 54.6133 148.938 55.36C149.045 56.0533 149.098 56.8 149.098 57.6C149.152 58.3467 149.178 59.04 149.178 59.68ZM146.138 43.52C144.485 43.9467 143.098 43.7867 141.978 43.04C140.912 42.24 140.245 41.0667 139.978 39.52C139.765 38.4 139.845 37.4133 140.218 36.56C140.592 35.7067 141.152 35.0667 141.898 34.64C142.645 34.16 143.498 33.9467 144.458 34C145.418 34.0533 146.378 34.4267 147.338 35.12C148.245 35.76 148.885 36.5067 149.258 37.36C149.685 38.2133 149.818 39.04 149.658 39.84C149.552 40.64 149.205 41.3867 148.618 42.08C148.032 42.72 147.205 43.2 146.138 43.52ZM167.629 83.6C167.576 83.8667 167.522 84.1333 167.469 84.4C167.469 84.6133 167.469 84.8533 167.469 85.12L166.989 86.8C166.882 87.0133 166.802 87.1467 166.749 87.2L166.509 87.68C166.242 88.2667 165.762 88.7467 165.069 89.12C163.789 89.76 162.429 89.92 160.989 89.6C160.082 89.4933 159.362 89.2267 158.829 88.8C158.296 88.4267 157.922 87.9733 157.709 87.44C157.496 86.9067 157.336 86.3733 157.229 85.84C157.069 85.3067 156.989 84.8267 156.989 84.4V39.6C156.989 39.2267 156.989 38.9067 156.989 38.64C157.042 38.32 157.096 38.0267 157.149 37.76C157.202 37.3867 157.256 37.0667 157.309 36.8C157.416 36.5333 157.522 36.24 157.629 35.92C157.789 35.3867 158.082 34.96 158.509 34.64C159.149 34.16 159.762 33.8933 160.349 33.84C160.722 33.7333 161.069 33.68 161.389 33.68C161.709 33.6267 162.082 33.6 162.509 33.6C163.256 33.6 164.109 33.8133 165.069 34.24C165.816 34.6667 166.349 35.2533 166.669 36C167.202 37.0667 167.469 38.0533 167.469 38.96C167.522 39.4933 167.549 40.2933 167.549 41.36C167.602 42.4267 167.629 43.2267 167.629 43.76V44.08C167.736 45.7867 167.789 47.44 167.789 49.04C167.789 50.5867 167.762 52.2933 167.709 54.16C167.709 55.9733 167.682 57.7333 167.629 59.44C167.629 61.0933 167.629 62.7467 167.629 64.4V81.2C167.629 81.4133 167.629 81.6267 167.629 81.84C167.682 82 167.709 82.1867 167.709 82.4C167.709 82.9333 167.682 83.3333 167.629 83.6ZM210.897 54.32C211.377 55.0667 211.59 55.8667 211.537 56.72C211.537 57.9467 211.323 59.0133 210.897 59.92C210.79 60.1867 210.63 60.5333 210.417 60.96C210.257 61.3867 210.07 61.84 209.857 62.32C209.697 62.8 209.51 63.2533 209.297 63.68C209.083 64.1067 208.923 64.4267 208.817 64.64L208.657 65.04C207.91 66.6933 207.19 68.2933 206.497 69.84C205.803 71.3867 205.03 73.04 204.177 74.8C203.323 76.5067 202.497 78.1867 201.697 79.84C200.95 81.44 200.203 83.0133 199.457 84.56C199.243 84.9867 199.057 85.4133 198.897 85.84C198.737 86.2133 198.523 86.6133 198.257 87.04L194.417 95.28C193.723 96.6667 193.057 98.0267 192.417 99.36C191.83 100.693 191.163 102.027 190.417 103.36C190.257 103.627 190.097 103.867 189.937 104.08C189.83 104.347 189.723 104.613 189.617 104.88C189.243 105.52 188.683 106.133 187.937 106.72C187.243 107.36 186.497 107.707 185.697 107.76C184.257 107.867 183.003 107.44 181.937 106.48C181.297 106.107 180.79 105.573 180.417 104.88C180.203 104.4 180.097 103.787 180.097 103.04C180.15 102.72 180.177 102.4 180.177 102.08C180.23 101.813 180.283 101.547 180.337 101.28C180.443 101.013 180.523 100.747 180.577 100.48C180.63 100.213 180.71 100 180.817 99.84C180.977 99.4133 181.11 99.2 181.217 99.2L187.057 86.56C186.79 85.9733 186.523 85.3867 186.257 84.8C185.99 84.16 185.75 83.6 185.537 83.12C184.843 81.4667 184.097 79.7333 183.297 77.92C182.55 76.0533 181.777 74.2133 180.977 72.4C180.177 70.5333 179.35 68.72 178.497 66.96C177.643 65.2 176.79 63.52 175.937 61.92C175.617 61.3867 175.323 60.8267 175.057 60.24C174.79 59.6 174.577 58.9867 174.417 58.4C174.257 57.76 174.203 57.12 174.257 56.48C174.31 55.84 174.55 55.2 174.977 54.56C175.403 53.76 175.963 53.2 176.657 52.88C177.35 52.5067 178.07 52.3467 178.817 52.4C179.617 52.4 180.363 52.56 181.057 52.88C181.75 53.2 182.31 53.6267 182.737 54.16C183.643 55.12 184.363 56.1867 184.897 57.36C185.43 58.5333 185.937 59.7333 186.417 60.96C187.43 63.0933 188.47 65.3333 189.537 67.68C190.603 70.0267 191.67 72.32 192.737 74.56L196.897 65.76C197.323 64.9067 197.697 64.08 198.017 63.28C198.39 62.48 198.763 61.7067 199.137 60.96C199.563 60.0533 199.963 59.12 200.337 58.16C200.763 57.2 201.243 56.32 201.777 55.52C201.883 55.3067 201.99 55.12 202.097 54.96C202.203 54.8 202.31 54.6133 202.417 54.4C202.897 53.76 203.323 53.2533 203.697 52.88C203.963 52.6667 204.177 52.5067 204.337 52.4C204.55 52.24 204.79 52.1333 205.057 52.08C205.43 51.9733 205.777 51.92 206.097 51.92C206.47 51.8667 206.817 51.8667 207.137 51.92C207.67 52.08 208.31 52.32 209.057 52.64C209.857 52.96 210.47 53.52 210.897 54.32ZM273.426 38.4C275.453 40.2667 276.946 42.5067 277.906 45.12C278.866 47.68 279.239 50.24 279.026 52.8C278.813 55.2533 278.039 57.52 276.706 59.6C275.373 61.6267 273.346 63.1733 270.626 64.24C268.493 65.1467 266.386 65.7867 264.306 66.16C262.226 66.5333 259.933 66.8267 257.426 67.04C256.306 67.1467 255.346 67.2267 254.546 67.28C253.799 67.28 252.919 67.3067 251.906 67.36C251.693 67.36 251.319 67.36 250.786 67.36C250.306 67.36 249.959 67.3867 249.746 67.44V84C249.586 85.0133 249.373 86.0533 249.106 87.12C248.893 88.1867 248.279 89.0133 247.266 89.6C246.679 89.92 245.959 90.1067 245.106 90.16C244.253 90.2133 243.479 90.1867 242.786 90.08C242.039 89.9733 241.399 89.7867 240.866 89.52C240.386 89.2 239.986 88.6667 239.666 87.92C239.453 87.44 239.239 86.9067 239.026 86.32C238.866 85.68 238.786 84.9067 238.786 84V39.76C238.786 39.3867 238.813 39.04 238.866 38.72C238.919 38.4 238.973 38.08 239.026 37.76C239.133 37.4933 239.213 37.2 239.266 36.88C239.319 36.56 239.399 36.2667 239.506 36C239.613 35.7333 239.719 35.4933 239.826 35.28C239.986 35.0667 240.173 34.88 240.386 34.72C240.653 34.4533 241.053 34.2133 241.586 34C242.173 33.7867 243.026 33.68 244.146 33.68H244.306C245.959 33.5733 247.799 33.4933 249.826 33.44C251.853 33.3333 253.533 33.36 254.866 33.52C255.613 33.6267 256.306 33.7067 256.946 33.76C257.586 33.76 258.199 33.7867 258.786 33.84C259.426 33.8933 260.066 33.9467 260.706 34C261.346 34.0533 261.986 34.1333 262.626 34.24C263.159 34.3467 263.639 34.4267 264.066 34.48C264.546 34.5333 265.026 34.6133 265.506 34.72C265.933 34.8267 266.386 34.9333 266.866 35.04C267.399 35.1467 267.879 35.3333 268.306 35.6C269.426 35.92 270.359 36.32 271.106 36.8C271.853 37.28 272.626 37.8133 273.426 38.4ZM268.626 51.6C268.679 50.32 268.413 49.2 267.826 48.24C267.293 47.28 266.519 46.48 265.506 45.84C264.493 45.2 263.346 44.6933 262.066 44.32C260.786 43.9467 259.506 43.68 258.226 43.52C257.906 43.52 257.453 43.52 256.866 43.52C256.333 43.4667 255.746 43.44 255.106 43.44C254.466 43.3867 253.853 43.36 253.266 43.36C252.733 43.3067 252.306 43.28 251.986 43.28C251.719 43.2267 251.399 43.2 251.026 43.2C250.653 43.2 250.226 43.2 249.746 43.2C249.799 44.8533 249.826 46.4533 249.826 48C249.826 49.4933 249.826 51.12 249.826 52.88C249.773 53.84 249.746 54.8 249.746 55.76C249.746 56.72 249.746 57.6533 249.746 58.56L254.706 58.48C255.986 58.48 257.399 58.4 258.946 58.24C260.493 58.08 261.959 57.76 263.346 57.28C264.733 56.8 265.906 56.1067 266.866 55.2C267.879 54.2933 268.466 53.0933 268.626 51.6ZM296.223 83.6C296.169 83.8667 296.116 84.1333 296.063 84.4C296.063 84.6133 296.063 84.8533 296.063 85.12L295.583 86.8C295.476 87.0133 295.396 87.1467 295.343 87.2L295.103 87.68C294.836 88.2667 294.356 88.7467 293.663 89.12C292.383 89.76 291.023 89.92 289.583 89.6C288.676 89.4933 287.956 89.2267 287.423 88.8C286.889 88.4267 286.516 87.9733 286.303 87.44C286.089 86.9067 285.929 86.3733 285.823 85.84C285.663 85.3067 285.583 84.8267 285.583 84.4V39.6C285.583 39.2267 285.583 38.9067 285.583 38.64C285.636 38.32 285.689 38.0267 285.743 37.76C285.796 37.3867 285.849 37.0667 285.903 36.8C286.009 36.5333 286.116 36.24 286.223 35.92C286.383 35.3867 286.676 34.96 287.103 34.64C287.743 34.16 288.356 33.8933 288.943 33.84C289.316 33.7333 289.663 33.68 289.983 33.68C290.303 33.6267 290.676 33.6 291.103 33.6C291.849 33.6 292.703 33.8133 293.663 34.24C294.409 34.6667 294.943 35.2533 295.263 36C295.796 37.0667 296.063 38.0533 296.063 38.96C296.116 39.4933 296.143 40.2933 296.143 41.36C296.196 42.4267 296.223 43.2267 296.223 43.76V44.08C296.329 45.7867 296.383 47.44 296.383 49.04C296.383 50.5867 296.356 52.2933 296.303 54.16C296.303 55.9733 296.276 57.7333 296.223 59.44C296.223 61.0933 296.223 62.7467 296.223 64.4V81.2C296.223 81.4133 296.223 81.6267 296.223 81.84C296.276 82 296.303 82.1867 296.303 82.4C296.303 82.9333 296.276 83.3333 296.223 83.6ZM312.13 56.32C313.73 55.52 315.41 54.96 317.17 54.64C318.93 54.2667 320.664 54.1867 322.37 54.4C324.13 54.56 325.81 55.0133 327.41 55.76C329.01 56.4533 330.504 57.4667 331.89 58.8C333.277 60.1867 334.344 61.7067 335.09 63.36C335.837 65.0133 336.37 66.8533 336.69 68.88C336.904 70.2667 337.25 71.5467 337.73 72.72C338.21 73.8933 338.717 75.0667 339.25 76.24C339.837 77.4133 340.37 78.5867 340.85 79.76C341.384 80.9333 341.81 82.16 342.13 83.44C342.397 84.6667 342.29 85.8667 341.81 87.04C341.384 88.16 340.477 88.8533 339.09 89.12C338.29 89.28 337.517 89.2267 336.77 88.96C336.077 88.64 335.437 88.2133 334.85 87.68C334.264 87.0933 333.73 86.48 333.25 85.84C332.824 85.1467 332.424 84.5067 332.05 83.92C330.824 85.52 329.49 86.7733 328.05 87.68C326.61 88.5333 324.877 89.0933 322.85 89.36C321.144 89.5733 319.517 89.6267 317.97 89.52C316.424 89.4133 314.77 89.12 313.01 88.64C310.717 88.0533 308.824 87.04 307.33 85.6C305.89 84.1067 304.77 82.4 303.97 80.48C303.224 78.5067 302.824 76.4 302.77 74.16C302.717 71.92 302.984 69.7067 303.57 67.52C304.317 64.64 305.437 62.2933 306.93 60.48C308.424 58.6667 310.157 57.28 312.13 56.32ZM314.13 65.68C313.384 66.4267 312.797 67.3067 312.37 68.32C311.944 69.3333 311.677 70.4 311.57 71.52C311.517 72.64 311.624 73.76 311.89 74.88C312.157 76 312.584 76.9867 313.17 77.84C313.704 78.5867 314.61 79.2267 315.89 79.76C317.17 80.24 318.504 80.5333 319.89 80.64C321.49 80.7467 322.877 80.32 324.05 79.36C325.277 78.4 326.184 77.2 326.77 75.76C327.41 74.2667 327.704 72.6933 327.65 71.04C327.597 69.3333 327.144 67.7867 326.29 66.4C325.65 65.3867 324.797 64.64 323.73 64.16C322.717 63.68 321.624 63.44 320.45 63.44C319.277 63.3867 318.104 63.5733 316.93 64C315.81 64.3733 314.877 64.9333 314.13 65.68ZM348.866 61.44C348.866 60.2133 348.839 58.9067 348.786 57.52C348.786 56.1333 349.026 54.88 349.506 53.76C349.933 52.7467 350.626 52.0267 351.586 51.6C352.599 51.12 353.586 51.0133 354.546 51.28C355.506 51.44 356.253 51.7333 356.786 52.16C357.319 52.5867 357.693 53.0933 357.906 53.68C358.173 54.2133 358.333 54.8533 358.386 55.6C358.439 56.2933 358.493 56.9867 358.546 57.68C359.079 56.72 359.746 55.9467 360.546 55.36C361.346 54.7733 362.173 54.2933 363.026 53.92C363.879 53.5467 364.679 53.28 365.426 53.12C366.226 52.96 366.839 52.88 367.266 52.88C369.293 52.88 371.293 53.3333 373.266 54.24C375.293 55.0933 376.973 56.32 378.306 57.92C379.053 58.88 379.613 59.8933 379.986 60.96C380.413 61.9733 380.706 63.04 380.866 64.16C381.079 65.28 381.213 66.4267 381.266 67.6C381.319 68.72 381.373 69.8667 381.426 71.04C381.693 74.4533 381.693 77.84 381.426 81.2C381.373 81.8933 381.346 82.6933 381.346 83.6C381.346 84.5067 381.266 85.4133 381.106 86.32C380.999 87.1733 380.759 87.9467 380.386 88.64C380.066 89.28 379.506 89.68 378.706 89.84C377.586 90.1067 376.653 90.16 375.906 90C375.213 89.8933 374.653 89.6533 374.226 89.28C373.799 88.9067 373.479 88.4267 373.266 87.84C373.053 87.2533 372.866 86.5867 372.706 85.84C372.599 85.2533 372.493 84.5867 372.386 83.84C372.333 83.04 372.279 82.24 372.226 81.44C372.226 80.64 372.199 79.8667 372.146 79.12C372.146 78.32 372.146 77.6 372.146 76.96C372.146 75.9467 372.119 74.8267 372.066 73.6C372.013 72.3733 372.013 71.2267 372.066 70.16C372.066 67.6533 371.399 65.76 370.066 64.48C368.786 63.1467 367.026 62.5867 364.786 62.8C363.079 63.0133 361.586 63.7067 360.306 64.88C359.026 66 358.413 67.4667 358.466 69.28C358.466 69.9733 358.466 70.6133 358.466 71.2C358.466 71.7867 358.439 72.3733 358.386 72.96C358.386 73.5467 358.386 74.1867 358.386 74.88C358.386 75.5733 358.386 76.3467 358.386 77.2C358.386 78.96 358.386 80.8267 358.386 82.8C358.386 84.72 358.146 86.2933 357.666 87.52C357.239 88.8 356.519 89.68 355.506 90.16C354.493 90.64 353.293 90.5067 351.906 89.76C351.319 89.44 350.839 89.0133 350.466 88.48C350.146 87.8933 349.879 87.28 349.666 86.64C349.506 86 349.399 85.36 349.346 84.72C349.293 84.0267 349.239 83.3867 349.186 82.8C349.026 81.04 348.919 79.4133 348.866 77.92C348.866 76.3733 348.866 74.72 348.866 72.96V61.44ZM388.163 61.44C388.163 60.2133 388.136 58.9067 388.083 57.52C388.083 56.1333 388.323 54.88 388.803 53.76C389.229 52.7467 389.923 52.0267 390.883 51.6C391.896 51.12 392.883 51.0133 393.843 51.28C394.803 51.44 395.549 51.7333 396.083 52.16C396.616 52.5867 396.989 53.0933 397.203 53.68C397.469 54.2133 397.629 54.8533 397.683 55.6C397.736 56.2933 397.789 56.9867 397.843 57.68C398.376 56.72 399.043 55.9467 399.843 55.36C400.643 54.7733 401.469 54.2933 402.323 53.92C403.176 53.5467 403.976 53.28 404.723 53.12C405.523 52.96 406.136 52.88 406.563 52.88C408.589 52.88 410.589 53.3333 412.563 54.24C414.589 55.0933 416.269 56.32 417.603 57.92C418.349 58.88 418.909 59.8933 419.283 60.96C419.709 61.9733 420.003 63.04 420.163 64.16C420.376 65.28 420.509 66.4267 420.563 67.6C420.616 68.72 420.669 69.8667 420.723 71.04C420.989 74.4533 420.989 77.84 420.723 81.2C420.669 81.8933 420.643 82.6933 420.643 83.6C420.643 84.5067 420.563 85.4133 420.403 86.32C420.296 87.1733 420.056 87.9467 419.683 88.64C419.363 89.28 418.803 89.68 418.003 89.84C416.883 90.1067 415.949 90.16 415.203 90C414.509 89.8933 413.949 89.6533 413.523 89.28C413.096 88.9067 412.776 88.4267 412.563 87.84C412.349 87.2533 412.163 86.5867 412.003 85.84C411.896 85.2533 411.789 84.5867 411.683 83.84C411.629 83.04 411.576 82.24 411.523 81.44C411.523 80.64 411.496 79.8667 411.443 79.12C411.443 78.32 411.443 77.6 411.443 76.96C411.443 75.9467 411.416 74.8267 411.363 73.6C411.309 72.3733 411.309 71.2267 411.363 70.16C411.363 67.6533 410.696 65.76 409.363 64.48C408.083 63.1467 406.323 62.5867 404.083 62.8C402.376 63.0133 400.883 63.7067 399.603 64.88C398.323 66 397.709 67.4667 397.763 69.28C397.763 69.9733 397.763 70.6133 397.763 71.2C397.763 71.7867 397.736 72.3733 397.683 72.96C397.683 73.5467 397.683 74.1867 397.683 74.88C397.683 75.5733 397.683 76.3467 397.683 77.2C397.683 78.96 397.683 80.8267 397.683 82.8C397.683 84.72 397.443 86.2933 396.963 87.52C396.536 88.8 395.816 89.68 394.803 90.16C393.789 90.64 392.589 90.5067 391.203 89.76C390.616 89.44 390.136 89.0133 389.763 88.48C389.443 87.8933 389.176 87.28 388.963 86.64C388.803 86 388.696 85.36 388.643 84.72C388.589 84.0267 388.536 83.3867 388.483 82.8C388.323 81.04 388.216 79.4133 388.163 77.92C388.163 76.3733 388.163 74.72 388.163 72.96V61.44ZM455.06 79.04C455.7 78.88 456.34 78.7733 456.98 78.72C457.673 78.6667 458.286 78.7467 458.82 78.96C459.406 79.1733 459.886 79.5467 460.26 80.08C460.633 80.56 460.82 81.2533 460.82 82.16C460.82 82.8 460.66 83.4133 460.34 84C460.02 84.5867 459.62 85.12 459.14 85.6C458.66 86.08 458.126 86.5067 457.54 86.88C456.953 87.2 456.393 87.4667 455.86 87.68C454.313 88.3733 452.526 88.9067 450.5 89.28C448.526 89.6533 446.473 89.7867 444.34 89.68C441.46 89.5733 438.686 89.0133 436.02 88C433.406 86.9333 431.353 85.2 429.86 82.8C428.473 80.4533 427.646 77.84 427.38 74.96C427.113 72.08 427.246 69.36 427.78 66.8C428.366 63.7067 429.353 61.2 430.74 59.28C432.18 57.3067 433.886 55.7333 435.86 54.56C438.26 53.1733 440.953 52.4533 443.94 52.4C446.926 52.3467 449.78 52.9333 452.5 54.16C454.313 54.96 455.94 56.0533 457.38 57.44C458.82 58.7733 459.913 60.4 460.66 62.32C460.873 62.8 461.033 63.3867 461.14 64.08C461.3 64.7733 461.406 65.52 461.46 66.32C461.513 67.0667 461.513 67.8133 461.46 68.56C461.406 69.3067 461.273 69.9733 461.06 70.56C460.74 71.52 460.34 72.2667 459.86 72.8C459.38 73.3333 458.766 73.7333 458.02 74C457.273 74.2667 456.366 74.4533 455.3 74.56C454.286 74.6133 453.06 74.6667 451.62 74.72C450.34 74.7733 449.14 74.8 448.02 74.8C446.9 74.8 445.753 74.8 444.58 74.8C443.406 74.7467 442.18 74.72 440.9 74.72C439.673 74.6667 438.286 74.6133 436.74 74.56C436.58 75.6267 436.713 76.56 437.14 77.36C437.62 78.1067 438.26 78.7467 439.06 79.28C439.86 79.76 440.766 80.1333 441.78 80.4C442.793 80.6667 443.78 80.8267 444.74 80.88C446.553 80.9867 448.286 80.8533 449.94 80.48C451.593 80.0533 453.3 79.5733 455.06 79.04ZM451.62 63.52C450.606 62.3467 449.54 61.4933 448.42 60.96C447.566 60.5867 446.66 60.4267 445.7 60.48C444.793 60.48 443.913 60.6133 443.06 60.88C441.513 61.2533 440.206 62.0533 439.14 63.28C439.033 63.3867 438.846 63.6533 438.58 64.08C438.313 64.4533 438.046 64.8533 437.78 65.28C437.566 65.7067 437.406 66.1067 437.3 66.48C437.193 66.8533 437.246 67.04 437.46 67.04H453.14C453.086 66.2933 452.953 65.68 452.74 65.2C452.526 64.6667 452.153 64.1067 451.62 63.52ZM468.007 61.68C468.007 61.04 468.007 60.32 468.007 59.52C468.007 58.6667 468.033 57.8133 468.087 56.96C468.14 56.0533 468.22 55.2 468.327 54.4C468.487 53.5467 468.7 52.8 468.967 52.16C469.393 51.2 470.06 50.56 470.967 50.24C471.873 49.8667 472.86 49.7067 473.927 49.76C475.047 49.76 475.927 49.9467 476.567 50.32C477.207 50.6933 477.687 51.2 478.007 51.84C478.327 52.4267 478.513 53.12 478.567 53.92C478.673 54.6667 478.727 55.4667 478.727 56.32C479.207 55.4667 479.847 54.7733 480.647 54.24C481.5 53.7067 482.353 53.28 483.207 52.96C484.06 52.64 484.833 52.4267 485.527 52.32C486.22 52.16 486.62 52.08 486.727 52.08C488.06 51.9733 489.26 51.9467 490.327 52C491.447 52.0533 492.673 52.2933 494.007 52.72C494.86 53.04 495.74 53.4933 496.647 54.08C497.553 54.6133 498.353 55.2533 499.047 56C499.74 56.7467 500.193 57.5733 500.407 58.48C500.673 59.3333 500.567 60.24 500.087 61.2C499.34 62.5333 498.513 63.2 497.607 63.2C496.7 63.1467 495.713 62.9867 494.647 62.72C494.06 62.6133 493.367 62.3733 492.567 62C491.767 61.6267 491.073 61.3867 490.487 61.28C488.673 61.0133 487.073 61.1467 485.687 61.68C484.3 62.2133 483.1 62.8533 482.087 63.6C480.913 64.5067 479.9 65.5467 479.047 66.72V78.24C479.047 79.68 479.02 81.1733 478.967 82.72C478.967 84.2667 478.753 85.68 478.327 86.96C477.953 88.1867 477.287 89.2 476.327 90C475.42 90.7467 474.087 91.0667 472.327 90.96C471.367 90.9067 470.513 90.4533 469.767 89.6C469.02 88.6933 468.567 87.8133 468.407 86.96C468.3 86.16 468.22 85.2 468.167 84.08C468.113 82.96 468.06 81.7867 468.007 80.56C468.007 79.3333 468.007 78.1067 468.007 76.88C468.007 75.6 468.007 74.4267 468.007 73.36V61.68Z" fill="black"/>
<path d="M53 121H480" stroke="#878787" stroke-width="6" stroke-linecap="round"/>
</svg>
