<svg width="197" height="34" viewBox="0 0 197 34" fill="none" xmlns="http://www.w3.org/2000/svg">
<path d="M25.4281 2.535C25.7581 2.925 25.9231 3.33 25.9231 3.75C25.9231 3.93 25.9081 4.125 25.8781 4.335C25.8781 4.515 25.8631 4.68 25.8331 4.83C25.7431 5.16 25.5481 5.475 25.2481 5.775C25.0081 5.955 24.6781 6.09 24.2581 6.18C24.0481 6.24 23.8381 6.285 23.6281 6.315C23.4181 6.345 23.1931 6.39 22.9531 6.45C22.7431 6.48 22.5331 6.495 22.3231 6.495C22.1131 6.495 21.8881 6.495 21.6481 6.495H19.3531C18.8131 6.525 18.2731 6.54 17.7331 6.54C17.2231 6.54 16.7131 6.54 16.2031 6.54C16.2331 7.47 16.2481 8.475 16.2481 9.555C16.2481 10.605 16.2331 11.835 16.2031 13.245C16.2031 14.655 16.1881 16.29 16.1581 18.15C16.1581 20.01 16.1581 22.17 16.1581 24.63V28.05C16.1581 28.35 16.1731 28.575 16.2031 28.725C16.2031 28.845 16.2031 28.965 16.2031 29.085C16.2031 29.175 16.1881 29.295 16.1581 29.445C16.0981 29.715 16.0531 30.03 16.0231 30.39C16.0231 30.54 16.0081 30.69 15.9781 30.84C15.9481 30.96 15.9031 31.095 15.8431 31.245C15.7231 31.365 15.6631 31.455 15.6631 31.515L15.5281 31.785C15.3781 32.085 15.0931 32.37 14.6731 32.64C14.0131 32.97 13.2781 33.045 12.4681 32.865C11.9581 32.805 11.5681 32.67 11.2981 32.46C11.0281 32.19 10.8331 31.92 10.7131 31.65C10.5331 31.32 10.4281 31.005 10.3981 30.705C10.3081 30.435 10.2631 30.15 10.2631 29.85V6.72C10.0831 6.72 9.70809 6.72 9.13809 6.72C8.56809 6.72 7.95309 6.72 7.29309 6.72C6.66309 6.69 6.06309 6.66 5.49309 6.63C4.92309 6.6 4.53309 6.57 4.32309 6.54C4.14309 6.51 3.85809 6.465 3.46809 6.405C3.10809 6.345 2.80809 6.285 2.56809 6.225C1.93809 6.045 1.44309 5.76 1.08309 5.37C0.753086 4.98 0.588086 4.545 0.588086 4.065C0.588086 3.885 0.588086 3.705 0.588086 3.525C0.588086 3.345 0.618086 3.18 0.678086 3.03C0.768086 2.67 1.00809 2.37 1.39809 2.13C1.51809 2.04 1.69809 1.935 1.93809 1.815C2.20809 1.665 2.46309 1.56 2.70309 1.5C3.06309 1.38 3.51309 1.29 4.05309 1.23C4.29309 1.2 4.53309 1.185 4.77309 1.185C5.01309 1.185 5.26809 1.185 5.53809 1.185C6.58809 1.185 7.57809 1.185 8.50809 1.185C9.46809 1.185 10.4731 1.17 11.5231 1.14C13.2631 1.11 14.9881 1.11 16.6981 1.14C18.4381 1.14 20.1631 1.17 21.8731 1.23C22.2631 1.26 22.6381 1.305 22.9981 1.365C23.3581 1.425 23.7181 1.53 24.0781 1.68C24.3481 1.77 24.6031 1.89 24.8431 2.04C25.0831 2.16 25.2781 2.325 25.4281 2.535ZM29.5083 12.66C30.4983 12.18 31.5333 11.835 32.6133 11.625C33.6933 11.415 34.7583 11.37 35.8083 11.49C36.8883 11.61 37.9233 11.895 38.9133 12.345C39.9333 12.795 40.8633 13.425 41.7033 14.235C42.3933 14.925 42.9933 15.765 43.5033 16.755C44.0133 17.715 44.3883 18.66 44.6283 19.59C45.1383 21.24 45.2133 22.905 44.8533 24.585C44.4933 26.265 43.8783 27.825 43.0083 29.265C42.5883 29.925 42.0633 30.525 41.4333 31.065C40.8333 31.575 40.1883 31.995 39.4983 32.325C38.5983 32.745 37.6233 33.03 36.5733 33.18C35.5233 33.36 34.5033 33.405 33.5133 33.315C31.7133 33.225 30.1233 32.775 28.7433 31.965C27.3933 31.155 26.2983 30.12 25.4583 28.86C24.6483 27.6 24.1083 26.175 23.8383 24.585C23.5983 22.965 23.7033 21.315 24.1533 19.635C24.6333 17.835 25.3233 16.38 26.2233 15.27C27.1533 14.13 28.2483 13.26 29.5083 12.66ZM30.8583 18.69C30.4083 19.11 30.0633 19.635 29.8233 20.265C29.5833 20.895 29.4333 21.555 29.3733 22.245C29.3133 22.905 29.3583 23.58 29.5083 24.27C29.6883 24.93 29.9583 25.53 30.3183 26.07C30.6183 26.52 31.1583 26.895 31.9383 27.195C32.7183 27.495 33.5283 27.675 34.3683 27.735C35.3283 27.795 36.1683 27.54 36.8883 26.97C37.6083 26.37 38.1483 25.635 38.5083 24.765C38.8983 23.895 39.0783 22.95 39.0483 21.93C39.0183 20.91 38.7483 19.98 38.2383 19.14C37.8783 18.54 37.3683 18.105 36.7083 17.835C36.0783 17.535 35.4033 17.385 34.6833 17.385C33.9933 17.355 33.3033 17.46 32.6133 17.7C31.9233 17.91 31.3383 18.24 30.8583 18.69ZM84.0237 14.91C84.0837 15.9 84.0687 16.92 83.9787 17.97C83.9187 19.02 83.8137 20.04 83.6637 21.03C83.3637 22.74 82.8087 24.405 81.9987 26.025C81.1887 27.645 80.0037 29.025 78.4437 30.165C76.8237 31.365 74.9787 32.19 72.9087 32.64C70.8387 33.06 68.7837 33.315 66.7437 33.405C66.0537 33.465 65.3487 33.48 64.6287 33.45C63.9387 33.45 63.2637 33.375 62.6037 33.225C62.0637 33.135 61.6587 32.97 61.3887 32.73C61.2387 32.64 61.1187 32.52 61.0287 32.37C60.9387 32.22 60.8637 32.07 60.8037 31.92C60.7137 31.77 60.6387 31.62 60.5787 31.47C60.5487 31.29 60.5037 31.11 60.4437 30.93C60.4137 30.78 60.3837 30.645 60.3537 30.525C60.3537 30.375 60.3537 30.24 60.3537 30.12V4.425C60.3537 4.215 60.3537 4.02 60.3537 3.84C60.3537 3.66 60.3837 3.48 60.4437 3.3C60.5037 2.88 60.5937 2.535 60.7137 2.265C60.8337 1.905 60.9987 1.65 61.2087 1.5C61.3887 1.35 61.5687 1.245 61.7487 1.185C61.9287 1.095 62.0937 1.02 62.2437 0.959999C62.4237 0.899998 62.6037 0.899998 62.7837 0.959999C62.9937 0.989999 63.2187 0.944999 63.4587 0.824998L70.9737 1.005C72.9537 1.065 74.7237 1.53 76.2837 2.4C77.8437 3.24 79.1787 4.32 80.2887 5.64C81.3987 6.96 82.2687 8.445 82.8987 10.095C83.5287 11.715 83.9037 13.32 84.0237 14.91ZM75.6537 23.46C76.2237 22.56 76.6437 21.525 76.9137 20.355C77.1837 19.185 77.3037 18 77.2737 16.8C77.2437 15.57 77.0787 14.385 76.7787 13.245C76.4787 12.075 76.0587 11.04 75.5187 10.14C75.0987 9.48 74.5587 8.94 73.8987 8.52C73.2387 8.1 72.5037 7.785 71.6937 7.575C70.8837 7.335 70.0137 7.17 69.0837 7.08C68.1837 6.99 67.2987 6.945 66.4287 6.945C66.4587 7.815 66.4737 8.655 66.4737 9.465C66.4737 10.275 66.4737 11.13 66.4737 12.03C66.4437 13.11 66.4287 14.16 66.4287 15.18C66.4287 16.2 66.4287 17.19 66.4287 18.15V27.33C67.3587 27.3 68.2437 27.255 69.0837 27.195C69.9537 27.105 70.7787 26.925 71.5587 26.655C72.3687 26.385 73.1037 26.01 73.7637 25.53C74.4537 25.02 75.0837 24.33 75.6537 23.46ZM93.5366 12.66C94.5266 12.18 95.5616 11.835 96.6416 11.625C97.7216 11.415 98.7866 11.37 99.8366 11.49C100.917 11.61 101.952 11.895 102.942 12.345C103.962 12.795 104.892 13.425 105.732 14.235C106.422 14.925 107.022 15.765 107.532 16.755C108.042 17.715 108.417 18.66 108.657 19.59C109.167 21.24 109.242 22.905 108.882 24.585C108.522 26.265 107.907 27.825 107.037 29.265C106.617 29.925 106.092 30.525 105.462 31.065C104.862 31.575 104.217 31.995 103.527 32.325C102.627 32.745 101.652 33.03 100.602 33.18C99.5516 33.36 98.5316 33.405 97.5416 33.315C95.7416 33.225 94.1516 32.775 92.7716 31.965C91.4216 31.155 90.3266 30.12 89.4866 28.86C88.6766 27.6 88.1366 26.175 87.8666 24.585C87.6266 22.965 87.7316 21.315 88.1816 19.635C88.6616 17.835 89.3516 16.38 90.2516 15.27C91.1816 14.13 92.2766 13.26 93.5366 12.66ZM94.8866 18.69C94.4366 19.11 94.0916 19.635 93.8516 20.265C93.6116 20.895 93.4616 21.555 93.4016 22.245C93.3416 22.905 93.3866 23.58 93.5366 24.27C93.7166 24.93 93.9866 25.53 94.3466 26.07C94.6466 26.52 95.1866 26.895 95.9666 27.195C96.7466 27.495 97.5566 27.675 98.3966 27.735C99.3566 27.795 100.197 27.54 100.917 26.97C101.637 26.37 102.177 25.635 102.537 24.765C102.927 23.895 103.107 22.95 103.077 21.93C103.047 20.91 102.777 19.98 102.267 19.14C101.907 18.54 101.397 18.105 100.737 17.835C100.107 17.535 99.4316 17.385 98.7116 17.385C98.0216 17.355 97.3316 17.46 96.6416 17.7C95.9516 17.91 95.3666 18.24 94.8866 18.69ZM145.172 29.58C145.232 29.73 145.262 29.955 145.262 30.255C145.262 30.525 145.262 30.75 145.262 30.93C145.262 31.17 145.217 31.395 145.127 31.605C145.037 31.815 144.917 32.01 144.767 32.19C144.497 32.55 144.107 32.82 143.597 33C142.877 33.24 142.202 33.36 141.572 33.36C141.242 33.39 140.897 33.405 140.537 33.405C140.177 33.405 139.817 33.435 139.457 33.495H139.277C136.967 33.525 134.582 33.525 132.122 33.495C131.522 33.465 130.847 33.465 130.097 33.495C129.347 33.555 128.612 33.54 127.892 33.45C127.172 33.39 126.512 33.225 125.912 32.955C125.342 32.655 124.937 32.19 124.697 31.56C124.637 31.41 124.592 31.275 124.562 31.155C124.532 31.005 124.517 30.855 124.517 30.705C124.397 29.685 124.352 28.68 124.382 27.69C124.412 26.7 124.427 25.725 124.427 24.765L124.517 18.24V12.21C124.517 11.13 124.517 10.17 124.517 9.33C124.547 8.49 124.577 7.56 124.607 6.54V6.315C124.637 6.015 124.652 5.715 124.652 5.415C124.682 5.115 124.697 4.815 124.697 4.515C124.757 3.825 124.922 3.24 125.192 2.76C125.372 2.31 125.687 1.95 126.137 1.68C126.527 1.41 126.992 1.275 127.532 1.275C127.742 1.275 127.937 1.29 128.117 1.32C128.327 1.32 128.522 1.335 128.702 1.365C128.882 1.395 129.047 1.455 129.197 1.545C129.377 1.635 129.557 1.755 129.737 1.905C129.917 2.115 130.082 2.37 130.232 2.67C130.352 3 130.427 3.33 130.457 3.66C130.487 3.87 130.517 4.065 130.547 4.245C130.577 4.425 130.592 4.605 130.592 4.785C130.532 4.965 130.502 5.145 130.502 5.325C130.502 5.505 130.502 5.67 130.502 5.82V6.63L130.322 27.825L139.232 27.915H141.347C141.527 27.915 141.722 27.93 141.932 27.96C142.142 27.96 142.352 27.975 142.562 28.005C142.802 28.035 143.012 28.065 143.192 28.095C143.372 28.125 143.552 28.17 143.732 28.23C144.062 28.32 144.332 28.47 144.542 28.68C144.872 28.98 145.082 29.28 145.172 29.58ZM154.53 15.945C154.53 16.785 154.53 17.73 154.53 18.78C154.56 19.83 154.575 20.925 154.575 22.065C154.575 23.175 154.575 24.285 154.575 25.395C154.575 26.475 154.56 27.48 154.53 28.41C154.5 28.86 154.455 29.355 154.395 29.895C154.335 30.405 154.215 30.885 154.035 31.335C153.855 31.785 153.57 32.16 153.18 32.46C152.82 32.73 152.325 32.85 151.695 32.82C150.765 32.76 150.09 32.355 149.67 31.605C149.28 30.855 149.055 29.805 148.995 28.455C148.995 27.765 148.98 26.97 148.95 26.07C148.95 25.17 148.935 24.255 148.905 23.325C148.905 22.395 148.905 21.495 148.905 20.625C148.905 19.725 148.905 18.915 148.905 18.195C148.905 17.775 148.89 17.265 148.86 16.665C148.86 16.065 148.875 15.45 148.905 14.82C148.935 14.19 149.01 13.59 149.13 13.02C149.25 12.42 149.445 11.925 149.715 11.535C149.925 11.295 150.225 11.115 150.615 10.995C151.005 10.845 151.41 10.77 151.83 10.77C152.28 10.77 152.7 10.845 153.09 10.995C153.51 11.145 153.81 11.355 153.99 11.625C154.11 11.805 154.2 12.06 154.26 12.39C154.32 12.72 154.365 13.095 154.395 13.515C154.455 13.905 154.485 14.325 154.485 14.775C154.515 15.195 154.53 15.585 154.53 15.945ZM152.82 6.855C151.89 7.095 151.11 7.005 150.48 6.585C149.88 6.135 149.505 5.475 149.355 4.605C149.235 3.975 149.28 3.42 149.49 2.94C149.7 2.46 150.015 2.1 150.435 1.86C150.855 1.59 151.335 1.47 151.875 1.5C152.415 1.53 152.955 1.74 153.495 2.13C154.005 2.49 154.365 2.91 154.575 3.39C154.815 3.87 154.89 4.335 154.8 4.785C154.74 5.235 154.545 5.655 154.215 6.045C153.885 6.405 153.42 6.675 152.82 6.855ZM169.239 25.08C168.669 24.72 168.024 24.435 167.304 24.225C166.614 24.015 165.894 23.82 165.144 23.64C164.424 23.46 163.719 23.265 163.029 23.055C162.339 22.815 161.709 22.485 161.139 22.065C159.909 21.135 159.189 19.995 158.979 18.645C158.799 17.265 159.099 15.885 159.879 14.505C160.299 13.785 160.854 13.2 161.544 12.75C162.234 12.27 162.984 11.91 163.794 11.67C164.634 11.4 165.489 11.25 166.359 11.22C167.229 11.19 168.054 11.235 168.834 11.355C169.344 11.445 169.884 11.58 170.454 11.76C171.024 11.91 171.549 12.12 172.029 12.39C172.539 12.66 172.989 13.005 173.379 13.425C173.799 13.815 174.099 14.31 174.279 14.91C174.399 15.3 174.414 15.675 174.324 16.035C174.264 16.395 174.114 16.695 173.874 16.935C173.664 17.175 173.379 17.355 173.019 17.475C172.689 17.595 172.329 17.625 171.939 17.565C171.489 17.475 171.069 17.34 170.679 17.16C170.289 16.98 169.899 16.785 169.509 16.575C169.119 16.365 168.714 16.185 168.294 16.035C167.904 15.885 167.484 15.81 167.034 15.81C166.344 15.78 165.774 15.9 165.324 16.17C164.874 16.44 164.559 16.77 164.379 17.16C164.229 17.55 164.244 17.97 164.424 18.42C164.634 18.87 165.054 19.26 165.684 19.59C166.254 19.89 166.884 20.13 167.574 20.31C168.264 20.49 168.939 20.67 169.599 20.85C170.289 21.03 170.949 21.24 171.579 21.48C172.239 21.72 172.824 22.05 173.334 22.47C174.324 23.28 174.924 24.225 175.134 25.305C175.374 26.385 175.314 27.45 174.954 28.5C174.594 29.55 173.964 30.48 173.064 31.29C172.194 32.1 171.159 32.64 169.959 32.91C169.089 33.09 168.144 33.18 167.124 33.18C166.134 33.18 165.144 33.075 164.154 32.865C163.194 32.655 162.264 32.325 161.364 31.875C160.494 31.425 159.759 30.855 159.159 30.165C158.739 29.685 158.514 29.145 158.484 28.545C158.484 27.915 158.604 27.375 158.844 26.925C159.114 26.445 159.489 26.115 159.969 25.935C160.449 25.755 160.989 25.86 161.589 26.25C162.069 26.58 162.639 26.91 163.299 27.24C163.959 27.54 164.619 27.78 165.279 27.96C165.939 28.14 166.569 28.23 167.169 28.23C167.799 28.23 168.339 28.095 168.789 27.825C169.449 27.405 169.794 26.925 169.824 26.385C169.854 25.815 169.659 25.38 169.239 25.08ZM196.2 13.155C196.44 13.725 196.455 14.355 196.245 15.045C196.065 15.735 195.72 16.185 195.21 16.395C194.94 16.515 194.58 16.62 194.13 16.71C193.68 16.77 193.185 16.83 192.645 16.89C192.135 16.95 191.625 16.995 191.115 17.025C190.605 17.055 190.17 17.07 189.81 17.07C189.84 17.97 189.87 18.9 189.9 19.86C189.93 20.79 189.96 21.705 189.99 22.605C190.02 23.505 190.035 24.375 190.035 25.215C190.035 26.025 190.02 26.76 189.99 27.42C189.99 27.87 189.99 28.395 189.99 28.995C189.99 29.565 189.945 30.12 189.855 30.66C189.795 31.2 189.69 31.68 189.54 32.1C189.39 32.49 189.165 32.745 188.865 32.865C187.935 33.255 187.08 33.36 186.3 33.18C185.55 33.03 185.01 32.715 184.68 32.235C184.44 31.845 184.26 31.395 184.14 30.885C184.02 30.345 183.93 29.805 183.87 29.265C183.84 28.695 183.825 28.155 183.825 27.645C183.855 27.105 183.87 26.64 183.87 26.25C183.9 24.99 183.915 23.565 183.915 21.975C183.945 20.355 183.96 18.735 183.96 17.115H183.285C182.925 17.115 182.46 17.115 181.89 17.115C181.35 17.085 180.795 17.04 180.225 16.98C179.685 16.89 179.175 16.785 178.695 16.665C178.215 16.515 177.87 16.305 177.66 16.035C177.33 15.645 177.12 15.225 177.03 14.775C176.97 14.325 177 13.905 177.12 13.515C177.27 13.095 177.495 12.735 177.795 12.435C178.095 12.105 178.44 11.895 178.83 11.805C179.37 11.655 180.135 11.58 181.125 11.58C182.115 11.55 183.045 11.55 183.915 11.58C183.885 11.28 183.87 10.995 183.87 10.725C183.87 10.425 183.855 10.14 183.825 9.87C183.795 9.51 183.78 9.06 183.78 8.52C183.78 7.95 183.81 7.395 183.87 6.855C183.96 6.285 184.095 5.76 184.275 5.28C184.455 4.77 184.71 4.38 185.04 4.11C185.49 3.75 185.94 3.555 186.39 3.525C186.87 3.465 187.305 3.525 187.695 3.705C188.115 3.885 188.46 4.155 188.73 4.515C189.03 4.845 189.24 5.22 189.36 5.64C189.45 6 189.525 6.435 189.585 6.945C189.645 7.425 189.675 7.935 189.675 8.475C189.705 9.015 189.72 9.555 189.72 10.095C189.72 10.635 189.72 11.13 189.72 11.58H190.17C190.62 11.58 191.145 11.565 191.745 11.535C192.345 11.505 192.93 11.52 193.5 11.58C194.1 11.64 194.64 11.79 195.12 12.03C195.6 12.24 195.96 12.615 196.2 13.155Z" fill="black"/>
</svg>
