<svg width="39" height="37" viewBox="0 0 39 37" fill="none" xmlns="http://www.w3.org/2000/svg">
<path d="M4.875 9.25H8.125M8.125 9.25H34.125M8.125 9.25V30.8333C8.125 31.6511 8.46741 32.4353 9.0769 33.0136C9.6864 33.5918 10.513 33.9167 11.375 33.9167H27.625C28.487 33.9167 29.3136 33.5918 29.9231 33.0136C30.5326 32.4353 30.875 31.6511 30.875 30.8333V9.25M13 9.25V6.16667C13 5.34892 13.3424 4.56466 13.9519 3.98642C14.5614 3.40819 15.388 3.08334 16.25 3.08334H22.75C23.612 3.08334 24.4386 3.40819 25.0481 3.98642C25.6576 4.56466 26 5.34892 26 6.16667V9.25M16.25 16.9583V26.2083M22.75 16.9583V26.2083" stroke="#1E1E1E" stroke-width="4" stroke-linecap="round" stroke-linejoin="round"/>
</svg>
